<svg width="498" height="501" viewBox="0 0 498 501" fill="none" xmlns="http://www.w3.org/2000/svg">
<path fill-rule="evenodd" clip-rule="evenodd" d="M246.008 0.360901C244.728 0.550468 239.076 1.37971 233.447 2.20521C217.845 4.49215 197.713 11.2082 181.343 19.5865C163.963 28.4812 143.874 45.3797 131.082 61.8627C110.876 87.9006 99 123.055 99 156.831C99 176.687 104.105 203.629 109.582 212.676L111.561 215.944L111.855 213.376C112.363 208.944 114.53 210.548 118.163 218.045C125.575 233.342 133.564 244.329 147.594 258.52C159.282 270.342 167.06 276.428 180.878 284.566C196.622 293.838 197.404 294.117 199.27 291.117C199.91 290.09 200.992 289.25 201.675 289.25C202.358 289.25 208.11 290.946 214.46 293.019C232.928 299.05 250.719 301.704 253.561 298.852C254.959 297.448 255.221 297.533 241.355 294.881C229.686 292.65 214.572 287.854 205.069 283.368C199.371 280.679 190.276 275.493 189.252 274.349C188.996 274.065 186.483 272.113 183.669 270.013C176.676 264.794 166.696 254.383 162.242 247.66C160.214 244.598 158.552 241.748 158.55 241.328C158.546 240.005 162.521 241.757 168.782 245.837C181.288 253.987 202.441 265.206 210.059 267.729C212.019 268.378 214.733 269.492 216.092 270.202C217.449 270.914 219.035 271.497 219.617 271.501C220.198 271.504 223.757 272.529 227.526 273.78C231.294 275.03 240.234 276.978 247.392 278.109C271.911 281.982 295.151 278.415 309.277 268.611C313.098 265.959 315.865 263.204 320.737 257.204C323.943 253.255 324.097 252.83 322.322 252.83C321.241 252.83 316.738 254.761 312.315 257.122C295.693 265.994 283.923 268.362 260.894 267.463C245.073 266.847 233.278 264.475 220.501 259.34C190.932 247.456 167.115 222.051 158.62 193.331C155.615 183.17 154.581 171.882 155.048 154.312C155.421 140.263 155.76 137.547 157.99 130.699C161.693 119.33 165.955 112.552 174.597 104.283C179.399 99.6892 191.479 92.0711 197.302 89.9653C199.27 89.2528 202.138 87.9987 203.673 87.1788C205.208 86.3579 206.973 85.6846 207.596 85.6809C208.218 85.6781 210.102 85.0599 211.783 84.3082C222.28 79.6101 227.498 78.0581 228.891 79.2188C230.096 80.2227 229.495 80.9072 224.731 83.9477C215.572 89.7916 216.18 90.732 227.01 87.4748C236.287 84.6836 244.113 81.8812 247.966 79.9696C249.811 79.0535 255.045 77.3829 259.597 76.2558C266.986 74.4264 269.467 74.2639 282.76 74.7355C290.947 75.0269 298.867 75.7319 300.358 76.3034C301.849 76.874 304.78 79.1637 306.871 81.39C310.053 84.7788 311.431 85.5408 315.324 86.0666C324.796 87.345 335.447 92.8583 340.626 99.1625C342.082 100.936 345.129 106.026 347.397 110.475C352.359 120.206 355.795 123.661 363.177 126.344C366.245 127.459 369.814 129.067 371.108 129.919C374.201 131.953 377.717 139.05 378.952 145.752C379.496 148.708 380.58 152.041 381.361 153.16C382.653 155.011 382.781 153.434 382.794 135.61C382.806 119.618 383.019 116.387 383.958 117.999C384.589 119.085 386.018 121.634 387.132 123.664C388.246 125.694 389.793 127.885 390.57 128.532C392.786 130.379 396.023 129.363 397.826 126.257C399.408 123.529 399.404 123.184 397.734 117.649C395.489 110.205 393.873 107.652 380.744 90.8113C373.406 81.3984 370.272 76.705 371.188 76.5014C371.939 76.3352 374.734 76.8404 377.4 77.6248C380.066 78.4092 382.321 78.9658 382.411 78.8612C387.132 76.3034 387.132 74.7355 385.697 71.0769C384.262 67.4183 381.31 65.1068 381.31 65.1068L375.036 58.7605C371.585 55.2699 366.368 50.979 363.443 49.2243C356.262 44.9184 355.287 43.1862 357.971 39.5032C359.162 37.868 359.414 37.8643 364.054 39.4117C372.133 42.1048 373.868 39.9019 368.319 33.9973C363.943 29.3413 353.876 22.9287 346.959 20.3915C327.072 13.0964 315.69 9.34711 308.346 7.67276C305.532 7.03122 300.717 5.8378 297.646 5.01976C285.172 1.69907 255.233 -1.00155 246.008 0.360901Z" fill="#034CAD"/>
<path d="M90.2273 363.5H70.3182C69.9545 360.924 69.2121 358.636 68.0909 356.636C66.9697 354.606 65.5303 352.879 63.7727 351.455C62.0152 350.03 59.9848 348.939 57.6818 348.182C55.4091 347.424 52.9394 347.045 50.2727 347.045C45.4545 347.045 41.2576 348.242 37.6818 350.636C34.1061 353 31.3333 356.455 29.3636 361C27.3939 365.515 26.4091 371 26.4091 377.455C26.4091 384.091 27.3939 389.667 29.3636 394.182C31.3636 398.697 34.1515 402.106 37.7273 404.409C41.303 406.712 45.4394 407.864 50.1364 407.864C52.7727 407.864 55.2121 407.515 57.4545 406.818C59.7273 406.121 61.7424 405.106 63.5 403.773C65.2576 402.409 66.7121 400.758 67.8636 398.818C69.0455 396.879 69.8636 394.667 70.3182 392.182L90.2273 392.273C89.7121 396.545 88.4242 400.667 86.3636 404.636C84.3333 408.576 81.5909 412.106 78.1364 415.227C74.7121 418.318 70.6212 420.773 65.8636 422.591C61.1364 424.379 55.7879 425.273 49.8182 425.273C41.5152 425.273 34.0909 423.394 27.5455 419.636C21.0303 415.879 15.8788 410.439 12.0909 403.318C8.33333 396.197 6.45455 387.576 6.45455 377.455C6.45455 367.303 8.36364 358.667 12.1818 351.545C16 344.424 21.1818 339 27.7273 335.273C34.2727 331.515 41.6364 329.636 49.8182 329.636C55.2121 329.636 60.2121 330.394 64.8182 331.909C69.4545 333.424 73.5606 335.636 77.1364 338.545C80.7121 341.424 83.6212 344.955 85.8636 349.136C88.1364 353.318 89.5909 358.106 90.2273 363.5ZM135.523 425.364C128.462 425.364 122.356 423.864 117.205 420.864C112.083 417.833 108.129 413.621 105.341 408.227C102.553 402.803 101.159 396.515 101.159 389.364C101.159 382.152 102.553 375.848 105.341 370.455C108.129 365.03 112.083 360.818 117.205 357.818C122.356 354.788 128.462 353.273 135.523 353.273C142.583 353.273 148.674 354.788 153.795 357.818C158.947 360.818 162.917 365.03 165.705 370.455C168.492 375.848 169.886 382.152 169.886 389.364C169.886 396.515 168.492 402.803 165.705 408.227C162.917 413.621 158.947 417.833 153.795 420.864C148.674 423.864 142.583 425.364 135.523 425.364ZM135.614 410.364C138.826 410.364 141.508 409.455 143.659 407.636C145.811 405.788 147.432 403.273 148.523 400.091C149.644 396.909 150.205 393.288 150.205 389.227C150.205 385.167 149.644 381.545 148.523 378.364C147.432 375.182 145.811 372.667 143.659 370.818C141.508 368.97 138.826 368.045 135.614 368.045C132.371 368.045 129.644 368.97 127.432 370.818C125.25 372.667 123.598 375.182 122.477 378.364C121.386 381.545 120.841 385.167 120.841 389.227C120.841 393.288 121.386 396.909 122.477 400.091C123.598 403.273 125.25 405.788 127.432 407.636C129.644 409.455 132.371 410.364 135.614 410.364ZM213.932 451.636C207.659 451.636 202.28 450.773 197.795 449.045C193.341 447.348 189.795 445.03 187.159 442.091C184.523 439.152 182.811 435.848 182.023 432.182L199.932 429.773C200.477 431.167 201.341 432.47 202.523 433.682C203.705 434.894 205.265 435.864 207.205 436.591C209.174 437.348 211.568 437.727 214.386 437.727C218.598 437.727 222.068 436.697 224.795 434.636C227.553 432.606 228.932 429.197 228.932 424.409V411.636H228.114C227.265 413.576 225.992 415.409 224.295 417.136C222.598 418.864 220.417 420.273 217.75 421.364C215.083 422.455 211.902 423 208.205 423C202.962 423 198.189 421.788 193.886 419.364C189.614 416.909 186.205 413.167 183.659 408.136C181.144 403.076 179.886 396.682 179.886 388.955C179.886 381.045 181.174 374.439 183.75 369.136C186.326 363.833 189.75 359.864 194.023 357.227C198.326 354.591 203.038 353.273 208.159 353.273C212.068 353.273 215.341 353.939 217.977 355.273C220.614 356.576 222.735 358.212 224.341 360.182C225.977 362.121 227.235 364.03 228.114 365.909H228.841V354.182H248.068V424.682C248.068 430.621 246.614 435.591 243.705 439.591C240.795 443.591 236.765 446.591 231.614 448.591C226.492 450.621 220.598 451.636 213.932 451.636ZM214.341 408.455C217.462 408.455 220.098 407.682 222.25 406.136C224.432 404.561 226.098 402.318 227.25 399.409C228.432 396.47 229.023 392.955 229.023 388.864C229.023 384.773 228.447 381.227 227.295 378.227C226.144 375.197 224.477 372.848 222.295 371.182C220.114 369.515 217.462 368.682 214.341 368.682C211.159 368.682 208.477 369.545 206.295 371.273C204.114 372.97 202.462 375.333 201.341 378.364C200.22 381.394 199.659 384.894 199.659 388.864C199.659 392.894 200.22 396.379 201.341 399.318C202.492 402.227 204.144 404.485 206.295 406.091C208.477 407.667 211.159 408.455 214.341 408.455ZM282.841 383.636V424H263.477V354.182H281.932V366.5H282.75C284.295 362.439 286.886 359.227 290.523 356.864C294.159 354.47 298.568 353.273 303.75 353.273C308.598 353.273 312.826 354.333 316.432 356.455C320.038 358.576 322.841 361.606 324.841 365.545C326.841 369.455 327.841 374.121 327.841 379.545V424H308.477V383C308.508 378.727 307.417 375.394 305.205 373C302.992 370.576 299.947 369.364 296.068 369.364C293.462 369.364 291.159 369.924 289.159 371.045C287.189 372.167 285.644 373.803 284.523 375.955C283.432 378.076 282.871 380.636 282.841 383.636ZM343.102 424V354.182H362.466V424H343.102ZM352.83 345.182C349.951 345.182 347.481 344.227 345.42 342.318C343.39 340.379 342.375 338.061 342.375 335.364C342.375 332.697 343.39 330.409 345.42 328.5C347.481 326.561 349.951 325.591 352.83 325.591C355.708 325.591 358.163 326.561 360.193 328.5C362.254 330.409 363.284 332.697 363.284 335.364C363.284 338.061 362.254 340.379 360.193 342.318C358.163 344.227 355.708 345.182 352.83 345.182ZM415.114 354.182V368.727H373.068V354.182H415.114ZM382.614 337.455H401.977V402.545C401.977 404.333 402.25 405.727 402.795 406.727C403.341 407.697 404.098 408.379 405.068 408.773C406.068 409.167 407.22 409.364 408.523 409.364C409.432 409.364 410.341 409.288 411.25 409.136C412.159 408.955 412.856 408.818 413.341 408.727L416.386 423.136C415.417 423.439 414.053 423.788 412.295 424.182C410.538 424.606 408.402 424.864 405.886 424.955C401.22 425.136 397.129 424.515 393.614 423.091C390.129 421.667 387.417 419.455 385.477 416.455C383.538 413.455 382.583 409.667 382.614 405.091V337.455ZM458.523 425.364C451.462 425.364 445.356 423.864 440.205 420.864C435.083 417.833 431.129 413.621 428.341 408.227C425.553 402.803 424.159 396.515 424.159 389.364C424.159 382.152 425.553 375.848 428.341 370.455C431.129 365.03 435.083 360.818 440.205 357.818C445.356 354.788 451.462 353.273 458.523 353.273C465.583 353.273 471.674 354.788 476.795 357.818C481.947 360.818 485.917 365.03 488.705 370.455C491.492 375.848 492.886 382.152 492.886 389.364C492.886 396.515 491.492 402.803 488.705 408.227C485.917 413.621 481.947 417.833 476.795 420.864C471.674 423.864 465.583 425.364 458.523 425.364ZM458.614 410.364C461.826 410.364 464.508 409.455 466.659 407.636C468.811 405.788 470.432 403.273 471.523 400.091C472.644 396.909 473.205 393.288 473.205 389.227C473.205 385.167 472.644 381.545 471.523 378.364C470.432 375.182 468.811 372.667 466.659 370.818C464.508 368.97 461.826 368.045 458.614 368.045C455.371 368.045 452.644 368.97 450.432 370.818C448.25 372.667 446.598 375.182 445.477 378.364C444.386 381.545 443.841 385.167 443.841 389.227C443.841 393.288 444.386 396.909 445.477 400.091C446.598 403.273 448.25 405.788 450.432 407.636C452.644 409.455 455.371 410.364 458.614 410.364Z" fill="white"/>
<path d="M79.0909 492H69.7259V464.364H79.2798C82.0237 464.364 84.3807 464.917 86.3509 466.023C88.33 467.121 89.8504 468.7 90.9119 470.76C91.9735 472.82 92.5043 475.285 92.5043 478.155C92.5043 481.034 91.969 483.508 90.8984 485.577C89.8369 487.646 88.303 489.234 86.2969 490.34C84.2997 491.447 81.8977 492 79.0909 492ZM74.7322 487.668H78.848C80.7732 487.668 82.379 487.317 83.6655 486.616C84.9519 485.905 85.919 484.848 86.5668 483.445C87.2145 482.032 87.5384 480.269 87.5384 478.155C87.5384 476.041 87.2145 474.286 86.5668 472.892C85.919 471.489 84.9609 470.441 83.6925 469.748C82.433 469.046 80.8677 468.695 78.9964 468.695H74.7322V487.668ZM105.91 492.297C105.092 492.297 104.39 492.009 103.805 491.433C103.22 490.857 102.932 490.156 102.941 489.328C102.932 488.518 103.22 487.826 103.805 487.25C104.39 486.674 105.092 486.386 105.91 486.386C106.702 486.386 107.39 486.674 107.975 487.25C108.569 487.826 108.87 488.518 108.879 489.328C108.87 489.877 108.726 490.376 108.447 490.826C108.177 491.276 107.817 491.636 107.368 491.906C106.927 492.166 106.441 492.297 105.91 492.297ZM125.287 492H119.944L129.673 464.364H135.853L145.596 492H140.253L132.871 470.031H132.655L125.287 492ZM125.463 481.164H140.037V485.185H125.463V481.164ZM159.63 492.297C158.811 492.297 158.109 492.009 157.525 491.433C156.94 490.857 156.652 490.156 156.661 489.328C156.652 488.518 156.94 487.826 157.525 487.25C158.109 486.674 158.811 486.386 159.63 486.386C160.421 486.386 161.11 486.674 161.694 487.25C162.288 487.826 162.589 488.518 162.598 489.328C162.589 489.877 162.446 490.376 162.167 490.826C161.897 491.276 161.537 491.636 161.087 491.906C160.646 492.166 160.161 492.297 159.63 492.297ZM179.155 464.364L186.348 486.116H186.631L193.81 464.364H199.316L189.573 492H183.393L173.663 464.364H179.155ZM232.588 464.364V492H227.582V464.364H232.588ZM244.395 468.56V464.364H266.445V468.56H257.903V492H252.937V468.56H244.395ZM318.977 473.688H313.93C313.786 472.861 313.52 472.127 313.134 471.489C312.747 470.841 312.266 470.292 311.69 469.842C311.114 469.393 310.457 469.055 309.72 468.83C308.991 468.596 308.204 468.479 307.358 468.479C305.856 468.479 304.524 468.857 303.364 469.613C302.203 470.36 301.295 471.457 300.638 472.906C299.981 474.345 299.653 476.104 299.653 478.182C299.653 480.296 299.981 482.077 300.638 483.526C301.304 484.965 302.212 486.054 303.364 486.791C304.524 487.52 305.851 487.884 307.345 487.884C308.172 487.884 308.946 487.776 309.666 487.56C310.394 487.335 311.047 487.007 311.622 486.575C312.207 486.143 312.697 485.613 313.093 484.983C313.498 484.353 313.777 483.634 313.93 482.824L318.977 482.851C318.788 484.164 318.378 485.397 317.749 486.548C317.128 487.7 316.314 488.716 315.306 489.598C314.299 490.471 313.12 491.154 311.771 491.649C310.421 492.135 308.923 492.378 307.277 492.378C304.848 492.378 302.68 491.816 300.773 490.691C298.866 489.567 297.363 487.943 296.266 485.82C295.168 483.696 294.619 481.151 294.619 478.182C294.619 475.204 295.173 472.658 296.279 470.544C297.386 468.421 298.893 466.797 300.8 465.673C302.707 464.548 304.866 463.986 307.277 463.986C308.815 463.986 310.246 464.202 311.568 464.634C312.891 465.065 314.069 465.7 315.104 466.536C316.138 467.364 316.989 468.38 317.654 469.586C318.329 470.782 318.77 472.15 318.977 473.688ZM331.161 492V464.364H336.168V487.803H348.34V492H331.161ZM377.706 464.364H382.712V482.419C382.712 484.398 382.245 486.139 381.309 487.641C380.382 489.144 379.078 490.318 377.396 491.163C375.713 492 373.748 492.418 371.499 492.418C369.241 492.418 367.27 492 365.588 491.163C363.906 490.318 362.601 489.144 361.675 487.641C360.748 486.139 360.285 484.398 360.285 482.419V464.364H365.291V482.001C365.291 483.152 365.543 484.178 366.047 485.077C366.56 485.977 367.279 486.683 368.206 487.196C369.133 487.7 370.23 487.952 371.499 487.952C372.767 487.952 373.865 487.7 374.791 487.196C375.727 486.683 376.447 485.977 376.95 485.077C377.454 484.178 377.706 483.152 377.706 482.001V464.364ZM395.754 492V464.364H406.334C408.331 464.364 409.99 464.679 411.313 465.308C412.644 465.929 413.638 466.779 414.295 467.859C414.961 468.938 415.294 470.162 415.294 471.529C415.294 472.654 415.078 473.616 414.646 474.417C414.214 475.209 413.634 475.852 412.905 476.347C412.177 476.841 411.362 477.197 410.463 477.413V477.683C411.443 477.737 412.383 478.038 413.283 478.587C414.192 479.126 414.934 479.891 415.51 480.881C416.085 481.87 416.373 483.067 416.373 484.47C416.373 485.901 416.027 487.187 415.334 488.33C414.642 489.463 413.598 490.358 412.204 491.015C410.809 491.672 409.055 492 406.941 492H395.754ZM400.76 487.817H406.145C407.962 487.817 409.271 487.47 410.071 486.778C410.881 486.076 411.286 485.176 411.286 484.079C411.286 483.26 411.084 482.522 410.679 481.866C410.274 481.2 409.698 480.678 408.951 480.3C408.205 479.914 407.314 479.72 406.28 479.72H400.76V487.817ZM400.76 476.117H405.713C406.576 476.117 407.355 475.96 408.047 475.645C408.74 475.321 409.284 474.867 409.68 474.282C410.085 473.688 410.287 472.987 410.287 472.177C410.287 471.106 409.91 470.225 409.154 469.532C408.407 468.839 407.296 468.493 405.821 468.493H400.76V476.117Z" fill="white"/>
</svg>
